<svg xmlns="http://www.w3.org/2000/svg" viewBox="0 0 290 290"><title>rain</title><g id="Layer_2" data-name="Layer 2"><g id="Layer_3" data-name="Layer 3"><path d="M270.71,164A65.72,65.72,0,0,0,290,117.26a67.11,67.11,0,0,0-19.36-46.85,65.76,65.76,0,0,0-46.81-19.32,28,28,0,0,0-4.86.27l-3.82.77-1.67-3.53a83.21,83.21,0,0,0-28.24-33.42,84.67,84.67,0,0,0-103.4,5.14A86.45,86.45,0,0,0,54.59,64.83l-.82,3.31-3.39.43A58.22,58.22,0,0,0,16.78,85a57.57,57.57,0,0,0,0,81.25,56.47,56.47,0,0,0,41,17.15H223.83A67.11,67.11,0,0,0,270.71,164ZM57.77,174.82A48.62,48.62,0,0,1,9,126c0-13.5,5.07-25.78,14.28-34.6A48.51,48.51,0,0,1,57.77,77.23a4.67,4.67,0,0,0,1.68-.3,4,4,0,0,0,1.77-2.71A75.06,75.06,0,0,1,86.65,28.06a75.93,75.93,0,0,1,92.93-4.7,73,73,0,0,1,23.14,25.91l2.34,4.5L200.52,56a26.78,26.78,0,0,1-2.67,1.12c-.65.25-1.21.46-1.71.71l-.22.1A70.44,70.44,0,0,0,173.59,74.2,4.3,4.3,0,1,0,180,80a66.62,66.62,0,0,1,19-14.27l.2-.1a57.89,57.89,0,0,1,23.57-5.17,57.19,57.19,0,0,1,0,114.38Z"/><path d="M141.13,206l-.09.13c-.66.93-1.22,1.8-1.81,2.73a40.53,40.53,0,0,1-3,4.31c-7.24,10.57-20.53,30-20.53,41.15a28.65,28.65,0,0,0,28.94,28.94h.19a27.48,27.48,0,0,0,20.73-8.39,28.42,28.42,0,0,0,8.39-20.55c0-11.21-13.44-30.81-20.65-41.33l0-.06-1-1.52a46.4,46.4,0,0,1-3.48-5.61,6.23,6.23,0,0,0-1.39-1.33A4.53,4.53,0,0,0,141.13,206ZM145,216.23l4.14,6.1c11.5,16.94,16.19,26.21,16.19,32a21.47,21.47,0,0,1-5.62,14.24l-.23.24A19.73,19.73,0,0,1,145,274.66,21.47,21.47,0,0,1,130.76,269l-.24-.23a19.73,19.73,0,0,1-5.85-14.48c0-5.78,4.69-15.06,16.19-32Z"/><path d="M193.43,254.33a28.65,28.65,0,0,0,28.94,28.94h.19a27.3,27.3,0,0,0,20.36-8.4,29,29,0,0,0,8.76-20.55c0-11.21-13.44-30.81-20.66-41.33l0-.06c-.35-.52-.7-1-1-1.51a47.2,47.2,0,0,1-3.48-5.61,5.91,5.91,0,0,0-1.4-1.34A4.52,4.52,0,0,0,218.9,206l-.41.65a55.13,55.13,0,0,1-4.53,6.57C206.71,223.75,193.43,243.18,193.43,254.33Zm28.94-38.1,4.14,6.1c11.5,16.94,16.19,26.22,16.19,32a21.47,21.47,0,0,1-5.62,14.24l-.22.24a19.76,19.76,0,0,1-14.49,5.85A21.47,21.47,0,0,1,208.13,269l-.24-.23A19.73,19.73,0,0,1,202,254.33c0-5.78,4.69-15.06,16.19-32Z"/><path d="M63.79,206l-.41.65a55.13,55.13,0,0,1-4.53,6.57c-7.25,10.58-20.53,30-20.53,41.15a28.65,28.65,0,0,0,28.94,28.94,28.11,28.11,0,0,0,19.82-8l1.47-1.47h.31a28.43,28.43,0,0,0,7.34-19.45c0-11.21-13.43-30.81-20.65-41.33l0-.06c-.34-.52-.69-1-1-1.51a46.82,46.82,0,0,1-3.65-6l-.09-.19-.52-.48-.56-.51A4.57,4.57,0,0,0,63.79,206ZM72,222.61c9.37,14.3,16,24.95,16,31.72a21.52,21.52,0,0,1-5.62,14.24l-.59.6a19.7,19.7,0,0,1-14.12,5.49A21.47,21.47,0,0,1,53.39,269l-.25-.23a19.76,19.76,0,0,1-5.84-14.48c0-5.78,4.69-15.06,16.19-32l4.21-6.2Z"/></g></g></svg>