<svg xmlns="http://www.w3.org/2000/svg" viewBox="0 0 290 290"><title>snow</title><g id="Layer_2" data-name="Layer 2"><g id="Layer_3" data-name="Layer 3"><path d="M270.64,70.41a65.76,65.76,0,0,0-46.81-19.32,28,28,0,0,0-4.86.27l-3.82.77-1.67-3.52a83.17,83.17,0,0,0-28.24-33.43,84.67,84.67,0,0,0-103.4,5.14A86.38,86.38,0,0,0,54.59,64.83l-.82,3.31-3.39.43A58.22,58.22,0,0,0,16.78,85a57.57,57.57,0,0,0,0,81.25,56.47,56.47,0,0,0,41,17.15H223.83A67.07,67.07,0,0,0,270.71,164,65.72,65.72,0,0,0,290,117.26,67.1,67.1,0,0,0,270.64,70.41ZM263.13,158a56.78,56.78,0,0,1-40.39,16.8h-165A48.62,48.62,0,0,1,9,126c0-13.5,5.07-25.78,14.28-34.6A48.51,48.51,0,0,1,57.77,77.23a4.67,4.67,0,0,0,1.68-.3,4,4,0,0,0,1.77-2.71A75.09,75.09,0,0,1,86.64,28.06a75.94,75.94,0,0,1,92.94-4.7,73,73,0,0,1,23.14,25.91l2.34,4.5L200.52,56a27.8,27.8,0,0,1-2.67,1.12c-.65.25-1.22.46-1.71.71l-.22.1A70.33,70.33,0,0,0,173.59,74.2,4.3,4.3,0,1,0,180,80a66.48,66.48,0,0,1,19-14.27l.2-.1a57.89,57.89,0,0,1,23.57-5.17A57.12,57.12,0,0,1,263.13,158Z"/><path d="M58.32,202.3a26.82,26.82,0,1,0,26.81,26.82A26.85,26.85,0,0,0,58.32,202.3Zm18.81,26.82A18.81,18.81,0,1,1,58.32,210.3,18.83,18.83,0,0,1,77.13,229.12Z"/><path d="M145,202.3a26.82,26.82,0,1,0,26.81,26.82A26.85,26.85,0,0,0,145,202.3Zm18.81,26.82A18.81,18.81,0,1,1,145,210.3,18.83,18.83,0,0,1,163.81,229.12Z"/><path d="M231.68,202.3a26.82,26.82,0,1,0,26.81,26.82A26.85,26.85,0,0,0,231.68,202.3Zm18.81,26.82a18.81,18.81,0,1,1-18.81-18.82A18.83,18.83,0,0,1,250.49,229.12Z"/></g></g></svg>