<svg xmlns="http://www.w3.org/2000/svg" viewBox="0 0 290 290"><title>sun</title><g id="Layer_2" data-name="Layer 2"><g id="Layer_3" data-name="Layer 3"><path d="M194.69,85.41l-.05,0A70.81,70.81,0,0,0,145,64.6,69.41,69.41,0,0,0,95.41,85.31,70.4,70.4,0,0,0,145,205.4a69.41,69.41,0,0,0,49.59-20.71A70.85,70.85,0,0,0,215.4,135,69.41,69.41,0,0,0,194.69,85.41Zm-7.27,92A60.56,60.56,0,1,1,204.76,135,59.47,59.47,0,0,1,187.42,177.42Z"/><path d="M274.68,129.68H244.13a5.32,5.32,0,0,0,0,10.64h30.55a5.32,5.32,0,1,0,0-10.64Z"/><path d="M145,228.81a5.53,5.53,0,0,0-5.32,5.32v30.55a5.32,5.32,0,1,0,10.64,0V234.13A5.53,5.53,0,0,0,145,228.81Z"/><path d="M215.41,198.19a4.25,4.25,0,0,0-3.13-1.32h-.15a5.27,5.27,0,0,0-3.75,1.51,5.06,5.06,0,0,0,0,7.21l21.82,21.83a5.11,5.11,0,1,0,7.22-7.22Z"/><path d="M145,41.19a5.53,5.53,0,0,0,5.32-5.32V5.32a5.32,5.32,0,1,0-10.64,0V35.87A5.53,5.53,0,0,0,145,41.19Z"/><path d="M209,71.81a4.24,4.24,0,0,0,3.13,1.32,5.3,5.3,0,0,0,3.9-1.51L237.81,49.8a5,5,0,0,0,0-7.22h0a5.06,5.06,0,0,0-7.21,0L208.77,64.41a5,5,0,0,0,0,7.21Z"/><path d="M51.19,135a5.53,5.53,0,0,0-5.32-5.32H15.32A5.54,5.54,0,0,0,10,135a5.27,5.27,0,0,0,5.32,5.32H45.87A5.53,5.53,0,0,0,51.19,135Z"/><path d="M81.05,198.19a4.28,4.28,0,0,0-3.14-1.32h-.15A5.3,5.3,0,0,0,74,198.38L52.19,220.2a5.1,5.1,0,1,0,7.21,7.22l21.83-21.83a5,5,0,0,0,0-7.21Z"/><path d="M74,71.62a5.1,5.1,0,0,0,7.22-7.21L59.4,42.58a5.1,5.1,0,1,0-7.21,7.22Z"/></g></g></svg>