<svg xmlns="http://www.w3.org/2000/svg" viewBox="0 0 300 300"><g data-name="Layer 2"><g data-name="Layer 3"><path d="M64.4 74.3l13.7-24.9a18.3 18.3 0 014.5-5.3l24.4-20a18.8 18.8 0 0111.8-4.2h29.9a19.7 19.7 0 012.3.1l32.8 4a18.6 18.6 0 0113.7 9l14 23.4.5 1a18.6 18.6 0 0016.6 10h4.9a18.8 18.8 0 019.7 2.7l26.3 16a18.3 18.3 0 016.6 6.7l11.5 20.7a17.8 17.8 0 012.3 8.7v23.5a18 18 0 01-3.9 11.2l-12.8 16.2a18.3 18.3 0 01-5.1 4.4l-19.3 11.4a18.9 18.9 0 01-10 2.5l-188-5a18.7 18.7 0 01-10.7-3.6l-22.6-16.6a18.1 18.1 0 01-6.7-9.5l-2.2-7.5a17.8 17.8 0 01.1-10.3l8.8-28a17.2 17.2 0 00.6-2.4l.6-3.8a18.2 18.2 0 0112.4-14.3L54 83a18.5 18.5 0 0010.4-8.7z" fill="transparent"/><path d="M119.7 220.2a4.5 4.5 0 00-4.5 4.5 4.2 4.2 0 004.5 4.4H223a24.3 24.3 0 0118.2 7.8 26.3 26.3 0 017.6 18 24.3 24.3 0 01-7.7 18.2 24.7 24.7 0 01-18.1 7.6 24.3 24.3 0 01-18.2-7.7 26.2 26.2 0 01-7.6-18 4.5 4.5 0 00-9 0 34.7 34.7 0 1034.8-34.8zM275.6 80.7a65.8 65.8 0 00-46.8-19.3 28 28 0 00-4.8.2l-3.9.8-1.6-3.5a83.1 83.1 0 00-28.3-33.4 84.6 84.6 0 00-103.4 5.1 86.3 86.3 0 00-27.2 44.5l-.8 3.3-3.4.4a58.1 58.1 0 00-33.6 16.5 57.6 57.6 0 000 81.3 56.5 56.5 0 0041 17.1h166a67.1 67.1 0 0047-19.4 65.7 65.7 0 0019.2-46.8 67.1 67.1 0 00-19.4-46.8zm-7.5 87.6a56.8 56.8 0 01-40.4 16.8h-165A48.6 48.6 0 0114 136.3c0-13.5 5-25.8 14.3-34.6a48.5 48.5 0 0134.5-14.2 4.7 4.7 0 001.7-.3 4 4 0 001.7-2.7 75 75 0 0125.5-46.2 76 76 0 0192.9-4.7 73 73 0 0123.1 26l2.4 4.4-4.6 2.3a26.8 26.8 0 01-2.6 1.1 17.2 17.2 0 00-1.8.7l-.2.2a70.3 70.3 0 00-22.3 16.2 4.3 4.3 0 106.4 5.8A66.8 66.8 0 01204 76h.2a57.7 57.7 0 0123.6-5.3 57.1 57.1 0 0140.4 97.6z"/></g></g></svg>