<svg xmlns="http://www.w3.org/2000/svg" viewBox="0 0 290 290"><title>atmosphere</title><g id="Layer_2" data-name="Layer 2"><g id="Layer_3" data-name="Layer 3"><path d="M114.71,209.89a4.45,4.45,0,0,0-4.49,4.49,4.21,4.21,0,0,0,4.49,4.49H218a24.34,24.34,0,0,1,18.22,7.75,26.29,26.29,0,0,1,7.59,18,24.35,24.35,0,0,1-7.67,18.14A24.71,24.71,0,0,1,218,270.47a24.33,24.33,0,0,1-18.21-7.75,26.25,26.25,0,0,1-7.59-18.05,4.49,4.49,0,0,0-9,0A34.75,34.75,0,1,0,218,209.89Z" style="fill:#1f0040"/><path d="M270.64,70.41a65.76,65.76,0,0,0-46.81-19.32,28,28,0,0,0-4.86.27l-3.82.77-1.67-3.53a83.21,83.21,0,0,0-28.24-33.42,84.67,84.67,0,0,0-103.4,5.14A86.37,86.37,0,0,0,54.6,64.83l-.83,3.31-3.39.43A58.17,58.17,0,0,0,16.79,85a57.56,57.56,0,0,0,0,81.25,56.47,56.47,0,0,0,41,17.15H223.83A67.11,67.11,0,0,0,270.71,164,65.72,65.72,0,0,0,290,117.26,67.1,67.1,0,0,0,270.64,70.41ZM263.13,158h0a56.76,56.76,0,0,1-40.39,16.8h-165A48.62,48.62,0,0,1,9,126c0-13.5,5.07-25.78,14.28-34.6A48.51,48.51,0,0,1,57.77,77.23a4.91,4.91,0,0,0,1.68-.3,4,4,0,0,0,1.77-2.71A75.06,75.06,0,0,1,86.65,28.06a75.93,75.93,0,0,1,92.93-4.7,73,73,0,0,1,23.14,25.91l2.34,4.5L200.52,56a26.78,26.78,0,0,1-2.67,1.12c-.65.25-1.21.46-1.71.71l-.22.1A70.33,70.33,0,0,0,173.59,74.2,4.3,4.3,0,1,0,180,80a66.62,66.62,0,0,1,19-14.27l.2-.1a57.89,57.89,0,0,1,23.57-5.17A57.12,57.12,0,0,1,263.13,158Z" style="fill:#1f0040"/></g></g></svg>