<svg xmlns="http://www.w3.org/2000/svg" viewBox="0 0 290 290"><title>clouds</title><g id="Layer_2" data-name="Layer 2"><g id="Layer_3" data-name="Layer 3"><path d="M223.83,54.09a28,28,0,0,0-4.86.27l-3.82.77-1.67-3.53a83.21,83.21,0,0,0-28.24-33.42,84.67,84.67,0,0,0-103.4,5.14A86.45,86.45,0,0,0,54.59,67.83l-.82,3.31-3.39.43A58.22,58.22,0,0,0,16.78,88a57.57,57.57,0,0,0,0,81.25,56.47,56.47,0,0,0,41,17.15H223.83A67.07,67.07,0,0,0,270.71,167,65.72,65.72,0,0,0,290,120.26a67.11,67.11,0,0,0-19.36-46.85A65.76,65.76,0,0,0,223.83,54.09ZM263.13,161h0a56.78,56.78,0,0,1-40.39,16.8h-165A48.62,48.62,0,0,1,9,129c0-13.5,5.07-25.78,14.28-34.6A48.51,48.51,0,0,1,57.77,80.23a4.67,4.67,0,0,0,1.68-.3,4,4,0,0,0,1.77-2.71A75.06,75.06,0,0,1,86.65,31.06a75.93,75.93,0,0,1,92.93-4.7,73,73,0,0,1,23.14,25.91l2.34,4.5L200.52,59a26.78,26.78,0,0,1-2.67,1.12c-.65.25-1.21.46-1.71.71l-.22.1A70.44,70.44,0,0,0,173.59,77.2,4.3,4.3,0,1,0,180,83a66.48,66.48,0,0,1,19-14.27l.2-.1a57.89,57.89,0,0,1,23.57-5.17A57.12,57.12,0,0,1,263.13,161Z" style="fill:#1f0040"/></g></g></svg>